<svg xmlns="http://www.w3.org/2000/svg" height="48px" viewBox="0 -960 960 960" width="48px" fill="#5f6368"><path d="M484.05-81.5q-83.55 0-156.76-31.82-73.22-31.81-127.75-86.25Q145-254 113.25-327.25 81.5-400.5 81.5-483.94q0-145.04 92-255.8 92-110.76 235-138.76-17.5 98 11.75 192.38 29.25 94.39 100 165.49Q591-449.53 685.5-420.49q94.5 29.04 193 11.52-27 143.2-138.12 235.34Q629.27-81.5 484.05-81.5ZM484-139q100.95 0 183.22-57.5Q749.5-254 800-343q-90.29-7.95-173.55-41.22Q543.2-417.5 479.5-481q-63.96-62.86-96.73-145.68Q350-709.5 342.5-798.5q-89 48.5-146.25 131.03Q139-584.95 139-484q0 144.38 100.31 244.69T484-139Zm-5-342Z"/></svg>